HIERARCHY
ROOT SpineBase
{
  OFFSET 0.000000 0.000000 0.000000
  CHANNELS 6 Xposition Yposition Zposition Zrotation Xrotation Yrotation
  JOINT SpineMid
  {
    OFFSET 0.000000 27.854355 0.000000
    CHANNELS 3 Zrotation Xrotation Yrotation
    JOINT SpineShoulder
    {
      OFFSET 0.027132 20.555309 -1.026849
      CHANNELS 3 Zrotation Xrotation Yrotation
      JOINT Neck
      {
        OFFSET -0.089760 6.855879 -0.695135
        CHANNELS 3 Zrotation Xrotation Yrotation
        JOINT Head
        {
          OFFSET 1.756596 14.172575 0.070237
          CHANNELS 3 Zrotation Xrotation Yrotation
          End Site
          {
            OFFSET 0 0 0
          }
        }
      }
      JOINT ShoulderLeft
      {
        OFFSET -11.750334 -7.227929 -5.661677
        CHANNELS 3 Zrotation Xrotation Yrotation
        JOINT ElbowLeft
        {
          OFFSET -2.854150 -19.504306 -1.793149
          CHANNELS 3 Zrotation Xrotation Yrotation
          JOINT WristLeft
          {
            OFFSET 5.484015 -18.557528 -4.586400
            CHANNELS 3 Zrotation Xrotation Yrotation
            JOINT HandLeft
            {
              OFFSET 3.960461 -7.224037 -0.755294
              CHANNELS 3 Zrotation Xrotation Yrotation
              JOINT HandTipLeft
              {
                OFFSET 3.755196 -6.691515 -3.634106
                CHANNELS 3 Zrotation Xrotation Yrotation
                End Site
                {
                  OFFSET 0 0 0
                }
              }
              JOINT ThumbLeft
              {
                OFFSET -2.067265 -0.144998 -3.809475
                CHANNELS 3 Zrotation Xrotation Yrotation
                End Site
                {
                  OFFSET 0 0 0
                }
              }
            }
          }
        }
      }
      JOINT ShoulderRight
      {
        OFFSET 14.256048 -0.193356 -1.904577
        CHANNELS 3 Zrotation Xrotation Yrotation
        JOINT ElbowRight
        {
          OFFSET 11.462287 -8.538913 -0.397177
          CHANNELS 3 Zrotation Xrotation Yrotation
          JOINT WristRight
          {
            OFFSET -12.268912 14.343158 -4.986758
            CHANNELS 3 Zrotation Xrotation Yrotation
            JOINT HandRight
            {
              OFFSET -14.150040 10.960400 -0.852126
              CHANNELS 3 Zrotation Xrotation Yrotation
              JOINT HandTipRight
              {
                OFFSET -2.943813 6.297218 -1.672699
                CHANNELS 3 Zrotation Xrotation Yrotation
                End Site
                {
                  OFFSET 0 0 0
                }
              }
              JOINT ThumbRight
              {
                OFFSET 2.600833 3.817941 -4.153966
                CHANNELS 3 Zrotation Xrotation Yrotation
                End Site
                {
                  OFFSET 0 0 0
                }
              }
            }
          }
        }
      }
    }
  }
  JOINT HipLeft
  {
    OFFSET -7.589895 0.612180 -4.112169
    CHANNELS 3 Zrotation Xrotation Yrotation
    JOINT KneeLeft
    {
      OFFSET 17.660790 -35.433339 -0.362632
      CHANNELS 3 Zrotation Xrotation Yrotation
      JOINT AnkleLeft
      {
        OFFSET 8.982773 -36.040701 9.529144
        CHANNELS 3 Zrotation Xrotation Yrotation
        JOINT FootLeft
        {
          OFFSET 1.341347 -2.229037 -12.082777
          CHANNELS 3 Zrotation Xrotation Yrotation
          End Site
          {
            OFFSET 0 0 0
          }
        }
      }
    }
  }
  JOINT HipRight
  {
    OFFSET 7.055904 0.988766 -2.788049
    CHANNELS 3 Zrotation Xrotation Yrotation
    JOINT KneeRight
    {
      OFFSET 3.818798 -34.700722 -1.487988
      CHANNELS 3 Zrotation Xrotation Yrotation
      JOINT AnkleRight
      {
        OFFSET 9.519057 -35.814585 9.449811
        CHANNELS 3 Zrotation Xrotation Yrotation
        JOINT FootRight
        {
          OFFSET 1.538735 -2.607713 -11.073434
          CHANNELS 3 Zrotation Xrotation Yrotation
          End Site
          {
            OFFSET 0 0 0
          }
        }
      }
    }
  }
}
MOTION
Frames: 5
Frame Time: 0.033333
39.978112 79.317103 344.528406 5.891320 1.101490 -32.322709 -0.598843 0.602113 32.507707 -0.706008 0.333309 0.228183 -8.479304 1.627169 -1.104609 0.000000 0.000000 0.000000 -4.766140 -1.366275 -0.773585 -3.998234 -7.939603 -1.342965 -7.419949 4.263647 1.793799 -8.661478 -25.667097 -12.184468 0.000000 0.000000 0.000000 0.000000 0.000000 0.000000 -13.619731 -25.478899 -36.883791 -0.417750 24.187151 32.185104 -1.392499 -32.092080 -40.047179 -14.246840 15.628673 37.814322 0.000000 0.000000 0.000000 0.000000 0.000000 0.000000 -5.141757 -16.043954 27.017067 0.898841 7.153143 3.076585 4.830742 -14.341315 -22.680751 0.000000 0.000000 0.000000 -15.390677 -3.421207 32.480297 4.680377 -10.321071 -3.333162 9.132874 4.858770 -18.746322 0.000000 0.000000 0.000000
40.000525 79.425967 344.268648 5.273487 0.788508 -33.936916 -0.425502 0.834109 34.128810 -0.701765 0.348922 0.210810 -8.908765 2.643137 -1.112611 0.000000 0.000000 0.000000 -5.184150 -0.846220 -0.723603 -3.885295 -7.719129 -1.088697 -8.155503 4.055424 1.846762 -9.867864 -28.191306 -14.421659 0.000000 0.000000 0.000000 0.000000 0.000000 0.000000 -12.697903 -26.212903 -37.792054 -0.294159 23.487914 31.749919 -2.663306 -32.173903 -41.534140 -3.697274 10.507678 33.246520 0.000000 0.000000 0.000000 0.000000 0.000000 0.000000 -4.509133 -16.037775 28.566241 1.253248 7.454270 3.199851 7.075055 -6.842230 -22.214288 0.000000 0.000000 0.000000 -17.039591 -1.730675 34.569274 5.725714 -13.119885 -3.556939 9.201084 4.925905 -20.256306 0.000000 0.000000 0.000000
40.112962 79.606502 343.961421 4.943675 0.707856 -35.005279 -0.481392 0.573538 35.186580 -0.784200 0.304952 0.175771 -8.949582 2.931651 -0.994543 0.000000 0.000000 0.000000 -5.302460 0.062067 -0.665807 -3.640640 -7.787108 -0.835954 -8.589501 3.582716 1.650116 -7.889579 -26.161916 -12.637784 0.000000 0.000000 0.000000 0.000000 0.000000 0.000000 -10.766635 -27.556911 -39.184962 0.677320 20.739804 29.451526 0.851147 -29.750126 -38.429871 12.374888 5.264510 27.158464 0.000000 0.000000 0.000000 0.000000 0.000000 0.000000 -4.098336 -16.143506 29.589334 1.220455 7.398793 3.171474 7.744584 -5.779462 -23.313620 0.000000 0.000000 0.000000 -14.777770 -1.389103 35.629304 2.943433 -12.311191 -3.951397 10.099058 4.936604 -20.250391 0.000000 0.000000 0.000000
40.130232 79.795643 343.728896 4.573428 0.667331 -34.650836 -0.488491 0.243322 34.818596 -0.895196 0.244362 0.134544 -8.793708 2.782926 -0.819198 0.000000 0.000000 0.000000 -5.699795 0.116809 -0.434262 -2.537858 -7.025689 -0.796310 -9.234675 2.858210 1.350293 -5.389225 -21.041343 -8.036659 0.000000 0.000000 0.000000 0.000000 0.000000 0.000000 -8.284416 -29.768795 -41.488992 0.958308 15.303916 26.085495 7.651741 -20.811879 -29.905408 26.938957 -2.508045 22.148011 0.000000 0.000000 0.000000 0.000000 0.000000 0.000000 -3.905547 -15.838741 29.259117 1.165846 7.291757 3.130878 7.882382 -5.316836 -23.149813 0.000000 0.000000 0.000000 -13.876366 -1.131549 35.302748 2.127470 -11.909219 -4.070038 10.156749 4.959372 -19.104302 0.000000 0.000000 0.000000
39.984631 79.960930 343.655383 3.960443 0.371260 -32.697480 -0.538181 0.032631 32.847686 -1.014018 0.217699 0.080462 -8.024212 2.687697 -0.610784 0.000000 0.000000 0.000000 -5.527573 -0.139586 -0.144502 -2.171735 -6.380067 -0.883059 -9.660146 1.781894 0.590758 -3.135567 -19.575832 -7.342860 0.000000 0.000000 0.000000 0.000000 0.000000 0.000000 -6.365011 -28.391536 -39.412787 5.530600 5.489039 16.979288 12.502213 -2.531912 -16.940075 34.698002 -12.985520 19.662580 0.000000 0.000000 0.000000 0.000000 0.000000 0.000000 -3.957803 -14.472629 27.564246 0.862280 6.745280 2.890726 7.445644 -6.091532 -22.076489 0.000000 0.000000 0.000000 -13.011024 -0.237870 33.487724 1.610319 -11.520786 -4.094880 9.942670 4.918691 -17.719077 0.000000 0.000000 0.000000
